<svg width="105" height="102" viewBox="0 0 105 102" fill="none" xmlns="http://www.w3.org/2000/svg">
<path d="M87 2H18C9.16344 2 2 9.16344 2 18V65.8717C2 71.7956 5.2731 77.2347 10.5073 80.0089L44.5809 98.0679C49.2265 100.53 54.7853 100.553 59.4509 98.1285L94.3773 79.9804C99.6755 77.2275 103 71.7534 103 65.7827V18C103 9.16344 95.8366 2 87 2Z" fill="black"/>
<path d="M87 2H18C9.16344 2 2 9.16344 2 18V65.8717C2 71.7956 5.2731 77.2347 10.5073 80.0089L44.5809 98.0679C49.2265 100.53 54.7853 100.553 59.4509 98.1285L94.3773 79.9804C99.6755 77.2275 103 71.7534 103 65.7827V18C103 9.16344 95.8366 2 87 2Z" fill="url(#paint0_radial_8_1165)"/>
<path d="M87 2H18C9.16344 2 2 9.16344 2 18V65.8717C2 71.7956 5.2731 77.2347 10.5073 80.0089L44.5809 98.0679C49.2265 100.53 54.7853 100.553 59.4509 98.1285L94.3773 79.9804C99.6755 77.2275 103 71.7534 103 65.7827V18C103 9.16344 95.8366 2 87 2Z" stroke="#FFECD9" stroke-width="3"/>
<defs>
<radialGradient id="paint0_radial_8_1165" cx="0" cy="0" r="1" gradientUnits="userSpaceOnUse" gradientTransform="translate(52.5 52) rotate(90) scale(50 50.5)">
<stop stop-color="#FFD1A3"/>
<stop offset="1" stop-color="#CE8842"/>
</radialGradient>
</defs>
</svg>
