<svg width="37" height="62" viewBox="0 0 37 62" fill="none" xmlns="http://www.w3.org/2000/svg">
<path d="M8.10099 50.9751C4.70883 47.2255 0.789238 43.4247 0.709762 40.0008C0.630287 36.5786 16.9246 16.3216 18.5195 16.4879C20.1144 16.6543 37.1529 39.1974 36.2877 41.0447C35.4225 42.8921 28.1722 50.6707 26.8265 52.0774C24.948 54.0433 19.885 60.8753 17.7627 60.8098C15.485 60.739 10.4293 53.5461 8.09918 50.9733L8.10099 50.9751Z" fill="url(#paint0_radial_7_1111)"/>
<path style="mix-blend-mode:screen" d="M18.5196 16.4897C18.5196 16.4897 21.4999 29.5343 19.2186 34.4641C16.9373 39.3921 15.9149 39.8397 14.5512 40.4343C13.1875 41.0306 9.57495 44.251 8.14981 44.0086C6.72467 43.768 0.041501 40.2414 0.825419 38.9055C1.60934 37.5695 11.7208 22.0512 18.5178 16.4879L18.5196 16.4897Z" fill="url(#paint1_radial_7_1111)"/>
<path style="mix-blend-mode:multiply" opacity="0.53" d="M36.2895 41.0465C36.0746 38.7639 24.4603 21.5858 18.5213 16.4897C20.0639 20.7418 22.4915 28.439 21.8178 32.3053C21.144 36.1716 20.6852 34.5862 19.9176 35.6125C19.1499 36.6387 18.4328 37.2404 18.0987 39.1443C17.7645 41.0483 21.0049 41.8782 21.8412 43.0106C22.6757 44.1431 34.2701 42.0764 36.2913 41.0465H36.2895Z" fill="url(#paint2_radial_7_1111)"/>
<path style="mix-blend-mode:multiply" opacity="0.8" d="M11.5798 55.197C13.6769 57.7345 15.9654 60.5656 17.5531 60.7868C18.9584 60.9815 21.5504 58.6564 24.2724 55.0466C25.367 53.5107 31.819 46.7531 31.819 46.7531C31.819 46.7531 22.9773 55.3669 19.009 57.4779C15.093 59.5606 14.5782 56.2764 11.578 55.1988L11.5798 55.197Z" fill="url(#paint3_radial_7_1111)"/>
<path style="mix-blend-mode:multiply" opacity="0.8" d="M26.4996 52.4526C19.1282 61.868 17.7807 60.3657 17.7807 60.3657C17.7807 60.3657 13.8449 57.8813 17.7916 49.724C18.319 48.634 20.8803 43.3734 21.8376 43.4725C22.7949 43.5733 28.3293 43.5716 35.8452 41.7791C30.999 48.5066 27.5707 51.812 26.4996 52.4526Z" fill="url(#paint4_radial_7_1111)"/>
<path style="mix-blend-mode:multiply" opacity="0.53" d="M10.8266 47.3335C10.8266 47.3335 13.126 51.2759 13.5523 51.4245C13.9786 51.5731 17.4701 50.085 17.452 49.4799C17.4339 48.8747 18.3407 45.0756 18.3407 45.0756C18.3407 45.0756 15.3441 47.2822 14.2314 47.6272C13.1188 47.9723 10.8248 47.3317 10.8248 47.3317L10.8266 47.3335Z" fill="url(#paint5_radial_7_1111)"/>
<path style="mix-blend-mode:screen" opacity="0.58" d="M18.5195 16.4897C21.1043 17.1745 36.3293 38.6506 36.2877 41.0465C34.1094 42.3825 26.1925 43.0814 26.1925 43.0814C26.1925 43.0814 32.491 42.494 32.5813 40.3352C32.6716 38.1764 22.5601 24.6629 22.1248 23.5552C21.6913 22.4493 18.5195 16.4879 18.5195 16.4879V16.4897Z" fill="url(#paint6_radial_7_1111)"/>
<path style="mix-blend-mode:multiply" opacity="0.56" d="M22.6035 43.5486C22.6035 43.5486 32.0882 44.9748 30.7823 48.2448C32.9462 45.7144 35.847 41.7773 35.847 41.7773L22.6035 43.5468V43.5486Z" fill="url(#paint7_radial_7_1111)"/>
<path style="mix-blend-mode:screen" d="M23.4886 43.0761C22.6486 43.0106 22.1609 43.0301 22.0056 42.6443C21.8485 42.2586 18.6911 40.6962 18.2486 40.1105C17.8061 39.5248 18.1854 38.7179 18.5123 37.6934C18.8392 36.6688 19.9176 35.6142 20.2517 35.2992C20.5859 34.9843 20.6383 35.1471 20.9128 35.0161C21.1874 34.8852 21.1657 34.7082 21.4439 34.004C21.722 33.2997 21.1097 27.372 20.6437 25.6627C20.1795 23.9534 21.2271 22.9554 21.1242 21.607C21.0212 20.2587 18.5213 16.4915 18.5213 16.4915C18.5213 16.4915 19.1228 25.9652 19.7604 29.8086C20.3998 33.6519 16.1624 39.4628 15.2141 39.6221C14.2658 39.7813 11.3812 42.3188 10.8303 42.5364C10.2794 42.7558 8.16062 43.2495 6.13218 42.9912C4.10375 42.7328 0.812744 39.385 0.812744 39.385C1.18845 40.8943 4.75581 43.1327 5.8468 43.4619C6.93778 43.791 8.4731 44.9358 9.15045 45.4985C9.8278 46.0612 12.9472 52.6437 14.5999 53.9159C16.1461 57.1647 15.4254 59.6809 17.5532 60.7886C20.8063 60.01 16.5055 59.6508 16.0847 57.9291C15.8408 56.9364 17.4611 50.1204 17.8061 49.6108C18.151 49.1012 18.7002 42.9222 21.8394 43.4742C24.9787 44.0263 35.847 41.7808 35.847 41.7808C35.847 41.7808 36.248 41.542 36.2895 41.0483C32.7456 42.662 24.3285 43.1416 23.4886 43.0779V43.0761ZM20.5588 42.908C20.3384 43.407 19.2691 43.7874 18.6767 44.2493C18.0842 44.7093 17.4791 49.3524 17.1522 49.8408C16.8253 50.3292 16.0449 51.9093 15.3459 51.8987C14.6469 51.8899 14.4247 51.4917 13.6444 51.2582C12.8641 51.0228 10.1818 45.4826 10.4203 44.8314C10.6587 44.1803 12.7052 42.363 13.2814 41.5933C13.8576 40.8236 15.1382 40.4697 16.688 40.5652C18.8266 40.6962 20.7774 42.4072 20.557 42.908H20.5588Z" fill="url(#paint8_radial_7_1111)"/>
<path style="mix-blend-mode:screen" opacity="0.33" d="M2.45457 44.4191C3.07773 45.7091 7.68911 49.7329 8.5507 50.561C9.93971 51.8952 13.1657 56.8816 14.9467 58.1715C16.6825 59.4296 11.3739 51.1467 10.2143 50.9344C9.05465 50.722 6.16463 46.0011 2.45276 44.4191H2.45457Z" fill="url(#paint9_radial_7_1111)"/>
<path style="mix-blend-mode:screen" opacity="0.76" d="M18.9999 22.9094C18.9999 22.9094 5.26511 32.3796 3.42091 34.5755C1.57672 36.7697 16.1822 17.1373 18.5195 16.4897C18.7796 16.1163 18.9999 22.9094 18.9999 22.9094Z" fill="url(#paint10_radial_7_1111)"/>
<path style="mix-blend-mode:multiply" opacity="0.33" d="M28.192 32.5035C28.192 32.5035 33.2568 39.2399 32.5813 40.3352C31.9039 41.4305 23.3422 42.7718 23.7848 42.0445C27.8525 35.3647 24.9913 29.0689 28.192 32.5017V32.5035Z" fill="url(#paint11_radial_7_1111)"/>
<path style="mix-blend-mode:screen" opacity="0.33" d="M16.5724 32.9264C20.8279 33.3705 13.4457 39.7035 11.5763 41.0005C9.70679 42.2975 7.39116 41.9313 5.92989 41.841C4.46863 41.749 2.0085 40.3953 2.12771 39.3885C2.24693 38.3799 14.5494 32.7158 16.5706 32.9282L16.5724 32.9264Z" fill="url(#paint12_radial_7_1111)"/>
<path d="M10.2649 42.7081C9.30754 42.5612 5.10076 42.4904 6.62705 43.2495C8.15334 44.0086 8.69703 44.9429 9.25336 44.6315C9.80968 44.3201 11.0524 42.8284 10.2649 42.7081Z" fill="white"/>
<path d="M19.2186 34.4641C18.9115 34.7136 17.0854 37.1908 16.8722 37.9729C16.5887 39.0169 18.0662 38.3003 18.9747 36.4441C19.8833 34.5862 19.6828 34.0854 19.2168 34.4658L19.2186 34.4641Z" fill="white"/>
<path d="M18.6459 16.8401C19.6014 17.8292 20.4504 19.9667 20.7141 21.7468C20.9615 23.4119 19.7062 24.4152 19.6249 23.5251C19.5436 22.6333 18.328 16.5109 18.6459 16.8401Z" fill="white"/>
<path d="M17.6543 16.9834C17.6543 16.9834 16.0142 19.9189 14.7805 21.2354C13.5469 22.5519 7.41821 29.1468 7.41821 29.1468C7.41821 29.1468 12.4577 22.6776 13.8828 21.0921C15.308 19.5067 17.6525 16.9834 17.6525 16.9834H17.6543Z" fill="white"/>
<g opacity="0.5">
<path style="mix-blend-mode:screen" opacity="0.8" d="M10.0879 18.3441C11.3143 19.0908 12.9255 18.721 13.6877 17.5195C14.45 16.3181 14.0725 14.7397 12.846 13.993C11.6196 13.2462 10.0084 13.6161 9.24614 14.8175C8.4839 16.019 8.8614 17.5974 10.0879 18.3441Z" fill="url(#paint13_radial_7_1111)"/>
</g>
<path d="M11.6647 15.858C11.4895 15.7518 11.2583 15.8031 11.1499 15.9766C11.0415 16.15 11.0939 16.3747 11.2709 16.4809C11.4479 16.587 11.6773 16.5357 11.7857 16.3623C11.8941 16.1907 11.8417 15.9642 11.6647 15.858Z" fill="#D9FFC2"/>
<g opacity="0.5">
<path style="mix-blend-mode:screen" opacity="0.8" d="M20.9898 5.71302C22.2358 4.99915 22.6552 3.43089 21.9265 2.21022C21.1978 0.989551 19.5969 0.578712 18.3509 1.29258C17.1048 2.00646 16.6855 3.57471 17.4142 4.79538C18.1429 6.01605 19.7437 6.42689 20.9898 5.71302Z" fill="url(#paint14_radial_7_1111)"/>
</g>
<path d="M19.8669 3.1903C19.6917 3.08414 19.4605 3.13545 19.3522 3.30886C19.2438 3.4805 19.2962 3.70699 19.4732 3.81316C19.6484 3.91933 19.8796 3.86802 19.988 3.69461C20.0963 3.52297 20.044 3.29647 19.8669 3.1903Z" fill="#D9FFC2"/>
<g opacity="0.5">
<path style="mix-blend-mode:screen" opacity="0.8" d="M8.77841 60.7969C10.1861 60.4838 11.0682 59.1122 10.7486 57.7332C10.4291 56.3542 9.02887 55.49 7.6212 55.8031C6.21353 56.1161 5.33144 57.4878 5.651 58.8668C5.97055 60.2458 7.37075 61.1099 8.77841 60.7969Z" fill="url(#paint15_radial_7_1111)"/>
</g>
<path d="M8.39356 57.9893C8.21835 57.8831 7.98715 57.9344 7.87878 58.1078C7.7704 58.2795 7.82278 58.506 7.99979 58.6121C8.17681 58.7183 8.4062 58.667 8.51458 58.4936C8.62295 58.3219 8.57057 58.0954 8.39356 57.9893Z" fill="#D9FFC2"/>
<g opacity="0.5">
<path style="mix-blend-mode:screen" opacity="0.8" d="M23.1652 41.6995C24.3917 42.4462 26.0029 42.0764 26.7651 40.8749C27.5274 39.6734 27.1499 38.095 25.9234 37.3483C24.697 36.6016 23.0858 36.9714 22.3235 38.1729C21.5613 39.3744 21.9388 40.9527 23.1652 41.6995Z" fill="url(#paint16_radial_7_1111)"/>
</g>
<path d="M24.7421 39.2133C24.5669 39.1072 24.3357 39.1585 24.2273 39.3319C24.1189 39.5035 24.1713 39.73 24.3483 39.8362C24.5235 39.9424 24.7547 39.8911 24.8631 39.7176C24.9715 39.546 24.9191 39.3195 24.7421 39.2133Z" fill="#D9FFC2"/>
<g opacity="0.5">
<path style="mix-blend-mode:screen" opacity="0.8" d="M22.3289 20.0587C23.5554 20.8055 25.1666 20.4356 25.9288 19.2342C26.6911 18.0327 26.3136 16.4543 25.0871 15.7076C23.8607 14.9609 22.2495 15.3307 21.4872 16.5322C20.725 17.7336 21.1025 19.312 22.3289 20.0587Z" fill="url(#paint17_radial_7_1111)"/>
</g>
<path d="M23.9058 17.5726C23.7306 17.4665 23.4994 17.5178 23.391 17.6912C23.2826 17.8628 23.335 18.0893 23.512 18.1955C23.6872 18.3017 23.9184 18.2503 24.0268 18.0769C24.1352 17.9053 24.0828 17.6788 23.9058 17.5726Z" fill="#D9FFC2"/>
<g opacity="0.5">
<path style="mix-blend-mode:screen" opacity="0.8" d="M16.0415 15.2446C18.8203 14.5492 20.4975 11.7787 19.7876 9.05651C19.0778 6.33432 16.2497 4.69127 13.4709 5.38667C10.6921 6.08207 9.0149 8.85257 9.72475 11.5748C10.4346 14.297 13.2627 15.94 16.0415 15.2446Z" fill="url(#paint18_radial_7_1111)"/>
</g>
<path d="M14.9937 11.0079C15.382 10.8787 15.5916 10.4664 15.4597 10.0842C15.3278 9.70375 14.907 9.49849 14.5168 9.62767C14.1285 9.75684 13.919 10.1691 14.0508 10.5513C14.1827 10.9318 14.6035 11.137 14.9937 11.0079Z" fill="#D9FFC2"/>
<g opacity="0.5">
<path style="mix-blend-mode:screen" opacity="0.8" d="M23.649 41.8468C26.4411 41.2048 28.1733 38.4669 27.5179 35.7317C26.8625 32.9964 24.0677 31.2995 21.2756 31.9416C18.4834 32.5836 16.7513 35.3215 17.4067 38.0567C18.0621 40.792 20.8569 42.4889 23.649 41.8468Z" fill="url(#paint19_radial_7_1111)"/>
</g>
<path d="M22.7011 37.5837C23.0894 37.4545 23.2989 37.0422 23.1671 36.66C23.0352 36.2796 22.6144 36.0743 22.2242 36.2035C21.8359 36.3326 21.6263 36.7449 21.7582 37.1271C21.8901 37.5076 22.3109 37.7128 22.7011 37.5837Z" fill="#D9FFC2"/>
<defs>
<radialGradient id="paint0_radial_7_1111" cx="0" cy="0" r="1" gradientUnits="userSpaceOnUse" gradientTransform="translate(16.8657 26.9998) rotate(5.96688) scale(72.887 41.387)">
<stop stop-color="#72FF2B"/>
<stop offset="0.16" stop-color="#61DE4C"/>
<stop offset="0.51" stop-color="#3F9D90"/>
<stop offset="0.67" stop-color="#3284AB"/>
</radialGradient>
<radialGradient id="paint1_radial_7_1111" cx="0" cy="0" r="1" gradientUnits="userSpaceOnUse" gradientTransform="translate(11.0662 22.4575) rotate(5.96688) scale(45.776 25.9927)">
<stop stop-color="#72FF2B"/>
<stop offset="0.16" stop-color="#61DE4C"/>
<stop offset="0.51" stop-color="#3F9D90"/>
<stop offset="0.67" stop-color="#3284AB"/>
</radialGradient>
<radialGradient id="paint2_radial_7_1111" cx="0" cy="0" r="1" gradientUnits="userSpaceOnUse" gradientTransform="translate(35.3428 42.7867) rotate(5.96688) scale(42.4721 24.1167)">
<stop stop-color="#72FF2B"/>
<stop offset="0.24" stop-color="#61DE4C"/>
<stop offset="0.76" stop-color="#3F9D90"/>
<stop offset="1" stop-color="#3284AB"/>
</radialGradient>
<radialGradient id="paint3_radial_7_1111" cx="0" cy="0" r="1" gradientUnits="userSpaceOnUse" gradientTransform="translate(23.5737 53.1467) rotate(5.96688) scale(11.7387 6.66549)">
<stop stop-color="#72FF2B"/>
<stop offset="0.24" stop-color="#61DE4C"/>
<stop offset="0.76" stop-color="#3F9D90"/>
<stop offset="1" stop-color="#3284AB"/>
</radialGradient>
<radialGradient id="paint4_radial_7_1111" cx="0" cy="0" r="1" gradientUnits="userSpaceOnUse" gradientTransform="translate(27.6957 59.6428) rotate(5.96688) scale(16.1938 9.19525)">
<stop stop-color="#72FF2B"/>
<stop offset="0.24" stop-color="#61DE4C"/>
<stop offset="0.76" stop-color="#3F9D90"/>
<stop offset="1" stop-color="#3284AB"/>
</radialGradient>
<radialGradient id="paint5_radial_7_1111" cx="0" cy="0" r="1" gradientUnits="userSpaceOnUse" gradientTransform="translate(16.466 50.8021) rotate(5.96688) scale(6.38925 3.62797)">
<stop stop-color="#72FF2B"/>
<stop offset="0.16" stop-color="#61DE4C"/>
<stop offset="0.51" stop-color="#3F9D90"/>
<stop offset="0.67" stop-color="#3284AB"/>
</radialGradient>
<radialGradient id="paint6_radial_7_1111" cx="0" cy="0" r="1" gradientUnits="userSpaceOnUse" gradientTransform="translate(28.9128 41.2806) rotate(5.96688) scale(18.5648 10.5415)">
<stop stop-color="#72FF2B"/>
<stop offset="0.16" stop-color="#61DE4C"/>
<stop offset="0.51" stop-color="#3F9D90"/>
<stop offset="0.67" stop-color="#3284AB"/>
</radialGradient>
<radialGradient id="paint7_radial_7_1111" cx="0" cy="0" r="1" gradientUnits="userSpaceOnUse" gradientTransform="translate(31.0942 44.3055) rotate(5.96688) scale(6.30506 3.58016)">
<stop stop-color="#72FF2B"/>
<stop offset="0.24" stop-color="#61DE4C"/>
<stop offset="0.76" stop-color="#3F9D90"/>
<stop offset="1" stop-color="#3284AB"/>
</radialGradient>
<radialGradient id="paint8_radial_7_1111" cx="0" cy="0" r="1" gradientUnits="userSpaceOnUse" gradientTransform="translate(17.3832 17.8662) rotate(1.78296) scale(47.9137 46.0011)">
<stop stop-color="#F5FFB2"/>
<stop offset="0.23" stop-color="#B1F9AD"/>
<stop offset="0.51" stop-color="#66F2A7"/>
<stop offset="0.74" stop-color="#2EEEA3"/>
<stop offset="0.91" stop-color="#0CEBA0"/>
<stop offset="1" stop-color="#00EAA0"/>
</radialGradient>
<radialGradient id="paint9_radial_7_1111" cx="0" cy="0" r="1" gradientUnits="userSpaceOnUse" gradientTransform="translate(18.4617 46.4536) rotate(5.96688) scale(22.6878 12.8827)">
<stop stop-color="#72FF2B"/>
<stop offset="0.16" stop-color="#61DE4C"/>
<stop offset="0.51" stop-color="#3F9D90"/>
<stop offset="0.67" stop-color="#3284AB"/>
</radialGradient>
<radialGradient id="paint10_radial_7_1111" cx="0" cy="0" r="1" gradientUnits="userSpaceOnUse" gradientTransform="translate(21.1171 17.7) rotate(5.96688) scale(35.9213 20.397)">
<stop stop-color="#72FF2B"/>
<stop offset="0.24" stop-color="#61DE4C"/>
<stop offset="0.76" stop-color="#3F9D90"/>
<stop offset="1" stop-color="#3284AB"/>
</radialGradient>
<radialGradient id="paint11_radial_7_1111" cx="0" cy="0" r="1" gradientUnits="userSpaceOnUse" gradientTransform="translate(30.5682 41.7576) rotate(5.96688) scale(7.7704 4.41222)">
<stop stop-color="#72FF2B"/>
<stop offset="0.16" stop-color="#61DE4C"/>
<stop offset="0.51" stop-color="#3F9D90"/>
<stop offset="0.67" stop-color="#3284AB"/>
</radialGradient>
<radialGradient id="paint12_radial_7_1111" cx="0" cy="0" r="1" gradientUnits="userSpaceOnUse" gradientTransform="translate(16.8828 41.9952) rotate(5.96688) scale(25.7959 14.6475)">
<stop stop-color="#72FF2B"/>
<stop offset="0.16" stop-color="#61DE4C"/>
<stop offset="0.51" stop-color="#3F9D90"/>
<stop offset="0.67" stop-color="#3284AB"/>
</radialGradient>
<radialGradient id="paint13_radial_7_1111" cx="0" cy="0" r="1" gradientUnits="userSpaceOnUse" gradientTransform="translate(11.4625 16.1717) rotate(-57.6192) scale(2.57537 2.59851)">
<stop stop-color="#2FFE00"/>
<stop offset="0.08" stop-color="#2AE300"/>
<stop offset="0.34" stop-color="#1B9300"/>
<stop offset="0.57" stop-color="#0F5400"/>
<stop offset="0.77" stop-color="#072600"/>
<stop offset="0.91" stop-color="#010A00"/>
<stop offset="1"/>
</radialGradient>
<radialGradient id="paint14_radial_7_1111" cx="0" cy="0" r="1" gradientUnits="userSpaceOnUse" gradientTransform="translate(19.6666 3.50946) rotate(-57.6192) scale(2.57537 2.59851)">
<stop stop-color="#2FFE00"/>
<stop offset="0.08" stop-color="#2AE300"/>
<stop offset="0.34" stop-color="#1B9300"/>
<stop offset="0.57" stop-color="#0F5400"/>
<stop offset="0.77" stop-color="#072600"/>
<stop offset="0.91" stop-color="#010A00"/>
<stop offset="1"/>
</radialGradient>
<radialGradient id="paint15_radial_7_1111" cx="0" cy="0" r="1" gradientUnits="userSpaceOnUse" gradientTransform="translate(8.19575 58.2978) rotate(-57.6192) scale(2.57537 2.59851)">
<stop stop-color="#2FFE00"/>
<stop offset="0.08" stop-color="#2AE300"/>
<stop offset="0.34" stop-color="#1B9300"/>
<stop offset="0.57" stop-color="#0F5400"/>
<stop offset="0.77" stop-color="#072600"/>
<stop offset="0.91" stop-color="#010A00"/>
<stop offset="1"/>
</radialGradient>
<radialGradient id="paint16_radial_7_1111" cx="0" cy="0" r="1" gradientUnits="userSpaceOnUse" gradientTransform="translate(24.5416 39.5278) rotate(-57.6192) scale(2.57537 2.59851)">
<stop stop-color="#2FFE00"/>
<stop offset="0.08" stop-color="#2AE300"/>
<stop offset="0.34" stop-color="#1B9300"/>
<stop offset="0.57" stop-color="#0F5400"/>
<stop offset="0.77" stop-color="#072600"/>
<stop offset="0.91" stop-color="#010A00"/>
<stop offset="1"/>
</radialGradient>
<radialGradient id="paint17_radial_7_1111" cx="0" cy="0" r="1" gradientUnits="userSpaceOnUse" gradientTransform="translate(23.7061 17.886) rotate(-57.6192) scale(2.57537 2.59851)">
<stop stop-color="#2FFE00"/>
<stop offset="0.08" stop-color="#2AE300"/>
<stop offset="0.34" stop-color="#1B9300"/>
<stop offset="0.57" stop-color="#0F5400"/>
<stop offset="0.77" stop-color="#072600"/>
<stop offset="0.91" stop-color="#010A00"/>
<stop offset="1"/>
</radialGradient>
<radialGradient id="paint18_radial_7_1111" cx="0" cy="0" r="1" gradientUnits="userSpaceOnUse" gradientTransform="translate(14.7525 10.3153) rotate(70.9696) scale(5.09819 5.18186)">
<stop stop-color="#2FFE00"/>
<stop offset="0.08" stop-color="#2AE300"/>
<stop offset="0.34" stop-color="#1B9300"/>
<stop offset="0.57" stop-color="#0F5400"/>
<stop offset="0.77" stop-color="#072600"/>
<stop offset="0.91" stop-color="#010A00"/>
<stop offset="1"/>
</radialGradient>
<radialGradient id="paint19_radial_7_1111" cx="0" cy="0" r="1" gradientUnits="userSpaceOnUse" gradientTransform="translate(22.465 36.8926) rotate(70.9797) scale(5.09818 5.18187)">
<stop stop-color="#2FFE00"/>
<stop offset="0.08" stop-color="#2AE300"/>
<stop offset="0.34" stop-color="#1B9300"/>
<stop offset="0.57" stop-color="#0F5400"/>
<stop offset="0.77" stop-color="#072600"/>
<stop offset="0.91" stop-color="#010A00"/>
<stop offset="1"/>
</radialGradient>
</defs>
</svg>
